<svg width="24" height="24" viewBox="0 0 24 24" fill="none" xmlns="http://www.w3.org/2000/svg">
    <path fill-rule="evenodd" clip-rule="evenodd"
          d="M21 5.95799C21.009 6.56499 20.933 7.32599 20.866 7.88099C20.8448 8.06434 20.8114 8.24608 20.766 8.42499C21.622 10.01 22 11.917 22 14C22 16.468 20.813 18.501 18.964 19.887C17.132 21.26 14.66 22 12 22C9.34 22 6.868 21.26 5.036 19.887C3.187 18.501 2 16.468 2 14C2 11.917 2.377 10.01 3.235 8.42499C3.18965 8.24608 3.15625 8.06434 3.135 7.88099C3.066 7.32599 2.99 6.56499 3 5.95799C3.01 5.27499 3.1 4.59199 3.199 3.91399C3.245 3.59999 3.317 3.30499 3.658 3.11899C4.006 2.92899 4.372 2.99899 4.733 3.10199C5.951 3.44699 7.093 3.93199 8.167 4.51199C9.3 4.17299 10.578 3.99999 12 3.99999C13.422 3.99999 14.7 4.17299 15.832 4.51299C16.9211 3.9176 18.0728 3.44471 19.266 3.10299C19.627 2.99999 19.994 2.92899 20.341 3.11899C20.681 3.30499 20.754 3.59999 20.801 3.91399C20.899 4.59199 20.99 5.27499 21 5.95799ZM20 14C20 12.313 19.612 9.99999 17.5 9.99999C16.548 9.99999 15.647 10.25 14.747 10.5C13.848 10.75 12.95 11 12 11C11.05 11 10.152 10.75 9.253 10.5C8.353 10.25 7.453 9.99999 6.5 9.99999C4.394 9.99999 4 12.32 4 14C4 15.764 4.827 17.231 6.236 18.287C7.66 19.356 9.69 20 12 20C14.31 20 16.339 19.355 17.764 18.287C19.173 17.23 20 15.764 20 14ZM10 14.5C10 15.88 9.328 17 8.5 17C7.672 17 7 15.88 7 14.5C7 13.12 7.672 12 8.5 12C9.328 12 10 13.12 10 14.5ZM15.5 17C16.328 17 17 15.88 17 14.5C17 13.12 16.328 12 15.5 12C14.672 12 14 13.12 14 14.5C14 15.88 14.672 17 15.5 17Z"
          fill="#fff"/>
</svg>
