<svg width="24" height="24" viewBox="0 0 24 24" fill="none" xmlns="http://www.w3.org/2000/svg">
    <path fill-rule="evenodd" clip-rule="evenodd"
          d="M15.135 2.50741C14.9991 2.278 14.7788 2.11092 14.5212 2.04195C14.2637 1.97298 13.9893 2.00761 13.757 2.13841C13.6431 2.20247 13.5432 2.28866 13.463 2.39192C13.3829 2.49517 13.3243 2.61341 13.2906 2.73966C13.2568 2.86592 13.2487 2.99764 13.2666 3.12709C13.2846 3.25653 13.3282 3.38108 13.395 3.49341L17.614 10.6594L11.7 4.86141C11.5088 4.67547 11.2527 4.57143 10.986 4.57143C10.7193 4.57143 10.4632 4.67547 10.272 4.86141C10.1785 4.95245 10.1042 5.06129 10.0534 5.18152C10.0027 5.30174 9.97656 5.43092 9.97656 5.56141C9.97656 5.69191 10.0027 5.82108 10.0534 5.94131C10.1042 6.06154 10.1785 6.17038 10.272 6.26141L16.266 12.1404L9.02 8.03741C8.78766 7.90661 8.51333 7.87198 8.25576 7.94095C7.9982 8.00992 7.77789 8.177 7.642 8.40641C7.57542 8.51876 7.53196 8.64329 7.51419 8.77267C7.49641 8.90205 7.50468 9.03368 7.53849 9.15982C7.57231 9.28596 7.631 9.40408 7.71111 9.50721C7.79123 9.61035 7.89115 9.69644 8.005 9.76041L15.437 13.9694L7.263 11.8204C7.00568 11.7533 6.73228 11.7901 6.50192 11.923C6.27155 12.0559 6.10275 12.2741 6.032 12.5304C5.997 12.6567 5.98746 12.7887 6.00395 12.9187C6.02044 13.0487 6.06263 13.1741 6.12805 13.2876C6.19347 13.4011 6.28083 13.5005 6.38503 13.58C6.48923 13.6594 6.6082 13.7174 6.735 13.7504L15.3 16.0004H7C6.73478 16.0004 6.48043 16.1058 6.29289 16.2933C6.10536 16.4808 6 16.7352 6 17.0004C6 17.2656 6.10536 17.52 6.29289 17.7075C6.48043 17.8951 6.73478 18.0004 7 18.0004H17C17.2076 18.0003 17.41 17.9355 17.5791 17.8151C17.7482 17.6948 17.8757 17.5248 17.9438 17.3287C18.012 17.1326 18.0174 16.9202 17.9594 16.7209C17.9014 16.5216 17.7827 16.3453 17.62 16.2164C17.796 16.0864 17.93 15.8994 17.992 15.6734C18.0275 15.5444 18.0364 15.4096 18.0182 15.277C18 15.1445 17.955 15.017 17.886 14.9024C18.0893 14.8183 18.2596 14.6702 18.371 14.4804C18.4368 14.3697 18.4801 14.2471 18.4985 14.1196C18.5168 13.9921 18.5099 13.8622 18.478 13.7374C18.683 13.7074 18.881 13.6134 19.039 13.4584C19.218 13.2842 19.3236 13.048 19.334 12.7984C19.544 12.8264 19.764 12.7884 19.961 12.6764C20.0749 12.6124 20.1748 12.5264 20.2549 12.4232C20.335 12.3201 20.3937 12.202 20.4275 12.0758C20.4613 11.9497 20.4696 11.8181 20.4518 11.6887C20.434 11.5593 20.3906 11.4348 20.324 11.3224L15.134 2.50741H15.135ZM4 17.0004C4 16.7352 3.89464 16.4808 3.70711 16.2933C3.51957 16.1058 3.26522 16.0004 3 16.0004C2.73478 16.0004 2.48043 16.1058 2.29289 16.2933C2.10536 16.4808 2 16.7352 2 17.0004V18.0004C2 19.0613 2.42143 20.0787 3.17157 20.8288C3.92172 21.579 4.93913 22.0004 6 22.0004H18C19.0609 22.0004 20.0783 21.579 20.8284 20.8288C21.5786 20.0787 22 19.0613 22 18.0004V17.0004C22 16.7352 21.8946 16.4808 21.7071 16.2933C21.5196 16.1058 21.2652 16.0004 21 16.0004C20.7348 16.0004 20.4804 16.1058 20.2929 16.2933C20.1054 16.4808 20 16.7352 20 17.0004V18.0004C20 18.5308 19.7893 19.0396 19.4142 19.4146C19.0391 19.7897 18.5304 20.0004 18 20.0004H6C5.46957 20.0004 4.96086 19.7897 4.58579 19.4146C4.21071 19.0396 4 18.5308 4 18.0004V17.0004Z"
          fill="#fff"/>
</svg>
